<?xml version="1.0" standalone="no"?><!DOCTYPE svg PUBLIC "-//W3C//DTD SVG 1.1//EN" "http://www.w3.org/Graphics/SVG/1.1/DTD/svg11.dtd"><svg t="1568182000824" class="icon" viewBox="0 0 1024 1024" version="1.1" xmlns="http://www.w3.org/2000/svg" p-id="2607" xmlns:xlink="http://www.w3.org/1999/xlink" width="200" height="200"><defs><style type="text/css"></style></defs><path d="M950.4 617.6c-6.4-6.4-12.8-9.6-22.4-9.6h-224c-19.2 0-32 12.8-32 32s12.8 32 32 32h153.6l-80 80c-70.4 70.4-166.4 112-268.8 112-156.8 0-294.4-92.8-352-236.8-6.4-16-25.6-25.6-41.6-16-16 9.6-25.6 25.6-16 41.6 67.2 166.4 230.4 275.2 409.6 275.2 121.6 0 233.6-48 316.8-131.2l70.4-73.6v140.8c0 19.2 12.8 32 32 32s32-12.8 32-32v-224c0-9.6-3.2-16-9.6-22.4zM320 416c19.2 0 32-12.8 32-32s-12.8-32-32-32h-153.6l80-80c70.4-70.4 166.4-112 268.8-112 156.8 0 294.4 92.8 352 236.8 6.4 16 25.6 25.6 41.6 16 16-6.4 25.6-25.6 16-41.6-67.2-166.4-227.2-275.2-409.6-275.2-121.6 0-233.6 48-316.8 131.2l-70.4 73.6v-140.8c0-19.2-12.8-32-32-32s-32 12.8-32 32v224c0 9.6 3.2 16 9.6 22.4 6.4 6.4 12.8 9.6 22.4 9.6h224z" p-id="2608" fill="#2c2c2c"></path></svg>