<?xml version="1.0" standalone="no"?><!DOCTYPE svg PUBLIC "-//W3C//DTD SVG 1.1//EN" "http://www.w3.org/Graphics/SVG/1.1/DTD/svg11.dtd"><svg t="1568039105647" class="icon" viewBox="0 0 1024 1024" version="1.1" xmlns="http://www.w3.org/2000/svg" p-id="5425" xmlns:xlink="http://www.w3.org/1999/xlink" width="200" height="200"><defs><style type="text/css"></style></defs><path d="M510 926.5c-55.7 0-109.8-10.9-160.8-32.5-49.2-20.8-93.3-50.6-131.3-88.5-37.9-37.9-67.7-82.1-88.5-131.3C108 623.3 97 569.2 97 513.5s10.9-109.8 32.5-160.8c20.8-49.2 50.6-93.3 88.5-131.3 37.9-37.9 82.1-67.7 131.3-88.5 50.9-21.5 105-32.5 160.8-32.5h1l-0.1 56h-0.9c-95.4 0-185 37.1-252.4 104.6C190.2 328.5 153 418.1 153 513.5s37.1 185 104.6 252.4C325 833.4 414.7 870.5 510 870.5c95.3 0 184.9-37.1 252.4-104.5C829.8 698.6 867 609 867 513.7h56c0 55.7-11 109.8-32.5 160.7-20.8 49.2-50.6 93.3-88.5 131.2-37.9 37.9-82.1 67.6-131.2 88.4-51 21.6-105 32.5-160.8 32.5zM922 358.9h-56V158.8H665.2v-56H922z" fill="#333333" p-id="5426"></path><path d="M873.869 110.728l39.598 39.598-356.591 356.59-39.598-39.597z" fill="#333333" p-id="5427"></path></svg>