<?xml version="1.0" standalone="no"?><!DOCTYPE svg PUBLIC "-//W3C//DTD SVG 1.1//EN" "http://www.w3.org/Graphics/SVG/1.1/DTD/svg11.dtd"><svg t="1569213328662" class="icon" viewBox="0 0 1024 1024" version="1.1" xmlns="http://www.w3.org/2000/svg" p-id="2149" width="25" height="25" xmlns:xlink="http://www.w3.org/1999/xlink"><defs><style type="text/css"></style></defs><path d="M512 0C229.6832 0 0 229.6576 0 512s229.6832 512 512 512 512-229.6832 512-512S794.3168 0 512 0zM512 996.3264c-267.0592 0-484.3264-217.2928-484.3264-484.3264S244.9408 27.6736 512 27.6736 996.3264 244.9408 996.3264 512 779.0592 996.3264 512 996.3264z" p-id="2150" fill="#ffffff"></path><path d="M512 633.0624c-14.2336 0-25.7536-11.5456-25.7536-25.7536l0-322.816c0-14.2336 11.52-25.7536 25.7536-25.7536 14.2336 0 25.7536 11.5456 25.7536 25.7536l0 322.816C537.7792 621.5168 526.2592 633.0624 512 633.0624z" p-id="2151" fill="#ffffff"></path><path d="M512 730.8288m-34.4576 0a1.346 1.346 0 1 0 68.9152 0 1.346 1.346 0 1 0-68.9152 0Z" p-id="2152" fill="#ffffff"></path></svg>