<?xml version="1.0" standalone="no"?><!DOCTYPE svg PUBLIC "-//W3C//DTD SVG 1.1//EN" "http://www.w3.org/Graphics/SVG/1.1/DTD/svg11.dtd"><svg class="icon" width="19px" height="19.00px" viewBox="0 0 1024 1024" version="1.1" xmlns="http://www.w3.org/2000/svg"><path d="M928.75294156 992H96.37647031C60.23529406 992 32 963.76470594 32 928.75294156V96.37647031C32 60.23529406 60.23529406 32 96.37647031 32h832.37647125C963.76470594 32 992 60.23529406 992 96.37647031v832.37647125c0 35.01176438-28.23529406 63.24705844-63.24705844 63.24705844z" fill="#40ba49" /><path d="M402.44705844 606.87058812c-12.42352969 6.77647031-28.23529406 1.12941187-36.14117625-11.29411781l-2.25882375-3.38823468-73.41176438-161.50588313c-1.12941187-1.12941187-1.12941187-3.38823563-1.12941187-5.64705844 0-3.38823563 1.12941187-6.77647031 3.38823562-9.03529406 2.25882375-2.25882375 5.64705844-4.5176475 9.03529407-3.38823563 3.38823563 0 5.64705844 1.12941187 7.90588218 2.25882375l86.96470594 62.11764751c10.16470594 6.77647031 23.7176475 9.03529406 36.14117625 4.51764656l408.84705937-181.83529406c-73.41176437-85.83529406-194.25882375-142.30588219-330.9176475-142.30588219C287.24705844 157.36470594 106.54117625 308.70588219 106.54117625 495.05882375c0 101.64705844 54.21176438 193.12941187 140.04705938 255.24705844 6.77647031 4.5176475 11.29411781 13.55294156 11.29411687 21.45882375 0 3.38823563 0 5.64705844-1.12941094 9.03529406l-18.07058906 67.76470594c-1.12941187 3.38823563-2.25882375 6.77647031-2.25882281 10.16470594 0 7.90588219 5.64705844 13.55294156 13.55294062 13.55294062 2.25882375 0 5.64705844-1.12941187 7.90588219-2.25882281l88.09411781-50.82352969c10.16470594-6.77647031 22.58823563-7.90588219 33.88235344-4.5176475 42.9176475 12.42352969 86.96470594 18.07058813 132.14117625 18.07058906 223.62352969 0 404.32941188-151.34117625 404.32941188-336.56470594 0-55.34117625-15.81176437-109.55294156-46.30588219-155.85882374L404.70588219 605.74117625l-2.25882375 1.12941187z m0 1e-8" fill="#ffffff" /></svg>