<?xml version="1.0" standalone="no"?><!DOCTYPE svg PUBLIC "-//W3C//DTD SVG 1.1//EN" "http://www.w3.org/Graphics/SVG/1.1/DTD/svg11.dtd"><svg class="icon" width="19px" height="19.00px" viewBox="0 0 1024 1024" version="1.1" xmlns="http://www.w3.org/2000/svg"><path d="M868 156C671.7-40.3 352.3-40.3 156 156c-196.3 196.3-196.3 515.7 0 712 196.3 196.3 515.7 196.3 712 0 196.3-196.3 196.3-515.7 0-712z m-59.1 182.6L424.7 722.9c-10.3 10.4-27.1 10.4-37.4 0.1l-0.1-0.1-172-172c-10.4-10.3-10.4-27.1-0.1-37.4l0.1-0.1c10.3-10.4 27.1-10.4 37.4-0.1l0.1 0.1L406 666.7l365.4-365.5c10.3-10.4 27-10.4 37.4-0.1l0.1 0.1c10.3 10.3 10.4 27 0 37.4z" fill="#64e14b" /></svg>